<?xml version="1.0" encoding="UTF-8" standalone="no"?>
<!-- Created with Inkscape (http://www.inkscape.org/) -->

<svg
   xmlns:osb="http://www.openswatchbook.org/uri/2009/osb"
   xmlns:dc="http://purl.org/dc/elements/1.1/"
   xmlns:cc="http://creativecommons.org/ns#"
   xmlns:rdf="http://www.w3.org/1999/02/22-rdf-syntax-ns#"
   xmlns:svg="http://www.w3.org/2000/svg"
   xmlns="http://www.w3.org/2000/svg"
   xmlns:xlink="http://www.w3.org/1999/xlink"
   xmlns:sodipodi="http://sodipodi.sourceforge.net/DTD/sodipodi-0.dtd"
   xmlns:inkscape="http://www.inkscape.org/namespaces/inkscape"
   width="48px"
   height="48px"
   id="svg2993"
   version="1.1"
   inkscape:version="0.48.2 r9819"
   sodipodi:docname="ic_edit.svg"
   inkscape:export-filename="/home/bell/workspace/SimpleCarboCalc/res/drawable-mdpi/ic_edit.png"
   inkscape:export-xdpi="67.5"
   inkscape:export-ydpi="67.5">
  <defs
     id="defs2995">
    <linearGradient
       id="linearGradient3811">
      <stop
         style="stop-color:#00ff00;stop-opacity:1;"
         offset="0"
         id="stop3813" />
      <stop
         style="stop-color:#004f00;stop-opacity:1;"
         offset="1"
         id="stop3815" />
    </linearGradient>
    <linearGradient
       id="linearGradient3775"
       osb:paint="solid">
      <stop
         style="stop-color:#000000;stop-opacity:0.81960785;"
         offset="0"
         id="stop3777" />
    </linearGradient>
    <linearGradient
       inkscape:collect="always"
       xlink:href="#linearGradient3775"
       id="linearGradient3779"
       x1="14.75"
       y1="20"
       x2="37.25"
       y2="20"
       gradientUnits="userSpaceOnUse" />
  </defs>
  <sodipodi:namedview
     id="base"
     pagecolor="#ffffff"
     bordercolor="#666666"
     borderopacity="1.0"
     inkscape:pageopacity="0.0"
     inkscape:pageshadow="2"
     inkscape:zoom="11.8125"
     inkscape:cx="24"
     inkscape:cy="24"
     inkscape:current-layer="layer1"
     showgrid="true"
     inkscape:grid-bbox="true"
     inkscape:document-units="px"
     inkscape:window-width="1278"
     inkscape:window-height="746"
     inkscape:window-x="0"
     inkscape:window-y="24"
     inkscape:window-maximized="0">
    <inkscape:grid
       type="xygrid"
       id="grid3001"
       empspacing="2"
       visible="true"
       enabled="true"
       snapvisiblegridlinesonly="true" />
  </sodipodi:namedview>
  <metadata
     id="metadata2998">
    <rdf:RDF>
      <cc:Work
         rdf:about="">
        <dc:format>image/svg+xml</dc:format>
        <dc:type
           rdf:resource="http://purl.org/dc/dcmitype/StillImage" />
        <dc:title></dc:title>
      </cc:Work>
    </rdf:RDF>
  </metadata>
  <g
     id="layer1"
     inkscape:label="Layer 1"
     inkscape:groupmode="layer">
    <path
       style="fill:none;stroke:#ffff00;stroke-width:2;stroke-linecap:butt;stroke-linejoin:miter;stroke-opacity:1;stroke-miterlimit:4;stroke-dasharray:none"
       d="m 33,40 7,0 0,-7 0,0"
       id="path4403"
       inkscape:connector-curvature="0" />
    <g
       id="g4224" />
    <path
       style="fill:none;stroke:#000064;stroke-width:1px;stroke-linecap:butt;stroke-linejoin:miter;stroke-opacity:1"
       d="m 9,16 7,-7 24,24 c -2.158583,0.01717 -3.774706,0.685297 -3.555643,3.555643 C 34.168035,36.315205 33.204599,37.690626 33,40 z"
       id="path4393"
       inkscape:connector-curvature="0"
       sodipodi:nodetypes="cccccc" />
    <path
       style="fill:none;stroke:#000064;stroke-width:1px;stroke-linecap:butt;stroke-linejoin:miter;stroke-opacity:1"
       d="M 36,36 13,13 13,12"
       id="path4395"
       inkscape:connector-curvature="0"
       sodipodi:nodetypes="ccc" />
    <path
       style="fill:none;stroke:#000064;stroke-width:1px;stroke-linecap:butt;stroke-linejoin:miter;stroke-opacity:1"
       d="m 13,13 -1,0 0,0 0,0"
       id="path4397"
       inkscape:connector-curvature="0" />
    <path
       style="stroke:#0000be;stroke-width:0.00598609000000000;stroke-miterlimit:4;stroke-opacity:1;stroke-dasharray:none;fill:#000096;fill-opacity:1"
       d="M 21.184002,27.434772 9.7524214,16.003074 l 1.2262976,-1.227393 1.226297,-1.227393 0.299912,0 0.299912,0 11.243561,11.243681 11.243561,11.24368 -0.395562,0.107074 c -0.79896,0.216268 -1.502518,0.837686 -1.887766,1.667371 -0.125309,0.26987 -0.247201,0.584954 -0.270871,0.700186 -0.02367,0.115232 -0.06084,0.242515 -0.08261,0.282851 -0.02483,0.04602 -4.297917,-4.185051 -11.471152,-11.358359 l 0,0 z"
       id="path4399"
       inkscape:connector-curvature="0" />
    <path
       style="fill:#0000ff;fill-opacity:1;stroke:#0000be;stroke-width:0.00598609000000000;stroke-miterlimit:4;stroke-opacity:1;stroke-dasharray:none"
       d="m 24.731943,23.978989 -11.178962,-11.179082 0,-0.299792 0,-0.299792 1.227393,-1.226297 1.227393,-1.2262976 11.40378,11.4031966 11.40378,11.403196 -0.407974,0.0937 c -0.98493,0.226203 -1.741408,0.78457 -2.129492,1.57181 -0.116485,0.236294 -0.229916,0.544109 -0.252069,0.684033 -0.02215,0.139925 -0.05707,0.254409 -0.07758,0.254409 -0.02052,0 -5.067837,-5.030586 -11.216266,-11.179081 l 0,0 z"
       id="path4401"
       inkscape:connector-curvature="0" />
    <path
       style="fill:#ffff00;fill-opacity:1;stroke:#ffff00;stroke-width:0.006;stroke-miterlimit:4;stroke-opacity:1;stroke-dasharray:none"
       d="m 33.60638,39.421956 c 0,-0.02536 0.05463,-0.243242 0.121402,-0.484194 0.240419,-0.867579 0.607339,-1.383598 1.185878,-1.667758 0.323455,-0.158871 0.378564,-0.166455 1.209625,-0.166455 l 0.87073,0 -0.0249,-0.698061 c -0.06193,-1.736146 0.468505,-2.495169 1.940553,-2.776818 0.24964,-0.04776 0.478459,-0.08684 0.508486,-0.08684 0.03215,0 0.05459,1.218146 0.05459,2.963114 l 0,2.963114 -2.933183,0 c -1.613251,0 -2.933184,-0.02074 -2.933184,-0.0461 z"
       id="path4405"
       inkscape:connector-curvature="0" />
    <path
       style="fill:none;stroke:#0000ff;stroke-width:2;stroke-linecap:butt;stroke-linejoin:miter;stroke-opacity:1;stroke-miterlimit:4;stroke-dasharray:none"
       d="m 40,40 0,-2 -2,2 z"
       id="path4407"
       inkscape:connector-curvature="0" />
  </g>
</svg>
