<?xml version="1.0" encoding="UTF-8" standalone="no"?>
<!-- Created with Inkscape (http://www.inkscape.org/) -->

<svg
   xmlns:dc="http://purl.org/dc/elements/1.1/"
   xmlns:cc="http://creativecommons.org/ns#"
   xmlns:rdf="http://www.w3.org/1999/02/22-rdf-syntax-ns#"
   xmlns:svg="http://www.w3.org/2000/svg"
   xmlns="http://www.w3.org/2000/svg"
   xmlns:sodipodi="http://sodipodi.sourceforge.net/DTD/sodipodi-0.dtd"
   xmlns:inkscape="http://www.inkscape.org/namespaces/inkscape"
   width="96"
   height="96"
   id="svg2985"
   version="1.1"
   inkscape:version="0.48.2 r9819"
   sodipodi:docname="SimpleCarboCalc.svg"
   inkscape:export-filename="/home/bell/SimpleCarboCalc/icosrc/SimpleCarboCalc.png"
   inkscape:export-xdpi="33.75"
   inkscape:export-ydpi="33.75">
  <defs
     id="defs2987" />
  <sodipodi:namedview
     id="base"
     pagecolor="#ffffff"
     bordercolor="#666666"
     borderopacity="1.0"
     inkscape:pageopacity="0.0"
     inkscape:pageshadow="2"
     inkscape:zoom="8"
     inkscape:cx="47.138756"
     inkscape:cy="53.818182"
     inkscape:current-layer="layer1"
     showgrid="true"
     inkscape:document-units="px"
     inkscape:grid-bbox="true"
     showguides="false"
     inkscape:snap-global="false"
     inkscape:window-width="1054"
     inkscape:window-height="1086"
     inkscape:window-x="1168"
     inkscape:window-y="313"
     inkscape:window-maximized="0">
    <inkscape:grid
       type="xygrid"
       id="grid3013"
       empspacing="2"
       visible="true"
       enabled="true"
       snapvisiblegridlinesonly="true"
       dotted="true" />
  </sodipodi:namedview>
  <metadata
     id="metadata2990">
    <rdf:RDF>
      <cc:Work
         rdf:about="">
        <dc:format>image/svg+xml</dc:format>
        <dc:type
           rdf:resource="http://purl.org/dc/dcmitype/StillImage" />
        <dc:title></dc:title>
      </cc:Work>
    </rdf:RDF>
  </metadata>
  <g
     id="layer1"
     inkscape:label="Layer 1"
     inkscape:groupmode="layer"
     transform="translate(0,32)">
    <path
       style="fill:#ffff62;fill-opacity:1;stroke:#000000;stroke-width:1.01466525px;stroke-linecap:butt;stroke-linejoin:miter;stroke-opacity:1"
       d="m 30.916423,-10.174485 c 6.592587,18.3341216 8.098466,36.498686 0.175968,54.348971 14.368641,4.90725 23.571364,2.388493 32.730157,-0.193414 -8.35072,-17.487317 -5.751372,-35.7046374 0.351936,-54.155556 -11.08602,-2.183229 -22.172041,-3.114925 -33.258061,-1e-6 z"
       id="path3011"
       inkscape:connector-curvature="0"
       sodipodi:nodetypes="ccccc" />
    <path
       style="fill:#000000;stroke:#000000;stroke-width:0.5;stroke-linecap:round;stroke-miterlimit:4;stroke-opacity:1;stroke-dasharray:none"
       d="M 46,50.181818 45.090909,52 l 2,-1.636364 -0.727273,1.818182 1.090909,-2 0.727272,2.545455 L 48,50.181818 49.454545,52.363637 48.363636,50 z"
       id="path3826"
       inkscape:connector-curvature="0"
       sodipodi:nodetypes="cccccccccc" />
    <path
       style="fill:#000000;stroke:#000000;stroke-width:1px;stroke-linecap:butt;stroke-linejoin:miter;stroke-opacity:1"
       d="m 46.90909,-13.818182 c -1.057021,-6.404619 2.473076,-9.24148 5.636363,-12.363637 l 0.909091,0.909091 c -4.43503,1.914804 -7.072667,6.61776 -6.192736,11.435093 0.106813,0.584764 -0.422357,-0.615092 -0.352718,0.01945 z"
       id="path3824"
       inkscape:connector-curvature="0"
       sodipodi:nodetypes="cccsc" />
    <path
       style="fill:#ff2a2a;stroke:#000000;stroke-width:0.87902075px;stroke-linecap:butt;stroke-linejoin:miter;stroke-opacity:1"
       d="m 30.973601,-10.7576 c 2.576825,1.0225667 5.108259,2.388875 7.730476,2.1713819 2.915501,-0.2418196 5.472843,0.6482993 8.209264,0.59853 2.108338,-0.038346 3.981369,-0.9005652 6.325013,-0.4878133 3.713007,0.653918 7.326365,-1.3914356 10.685771,-2.1394626 -3.784111,-2.547148 -7.661048,-6.101562 -11.654432,-5.235271 -2.733336,0.592946 -5.783199,1.012448 -9.631319,-0.104782 -3.63998,-1.056802 -7.643574,2.40607 -11.664773,5.197417 z"
       id="path3017"
       inkscape:connector-curvature="0"
       sodipodi:nodetypes="cssscssc" />
    <path
       style="fill:#ff2a2a;stroke:#000000;stroke-width:0.98226035px;stroke-linecap:butt;stroke-linejoin:miter;stroke-opacity:1"
       d="m 31.286584,44.428068 c 4.401366,4.165516 9.860525,10.460711 13.320592,7.409943 2.664082,-2.348943 3.867846,-1.771836 6.135893,0.139838 3.418581,2.881427 8.534501,-3.397197 12.947619,-7.549781 -2.198981,-0.709562 -3.518651,-3.653792 -6.662808,-1.786167 -1.579318,0.938113 -3.404235,-1.583563 -5.394874,-0.866651 -1.655748,0.596301 -3.503135,-0.278241 -5.282895,-0.261037 -1.437052,0.01389 -3.838817,-1.171114 -4.351343,0.264502 -0.886315,2.482618 -3.163783,0.779986 -4.925959,0.856076 -1.948273,0.08413 -3.829434,1.039994 -5.786225,1.793277 z"
       id="path3023"
       inkscape:connector-curvature="0"
       sodipodi:nodetypes="csscsssssc" />
  </g>
</svg>
