<?xml version="1.0" encoding="UTF-8" standalone="no"?>
<!-- Created with Inkscape (http://www.inkscape.org/) -->

<svg
   xmlns:osb="http://www.openswatchbook.org/uri/2009/osb"
   xmlns:dc="http://purl.org/dc/elements/1.1/"
   xmlns:cc="http://creativecommons.org/ns#"
   xmlns:rdf="http://www.w3.org/1999/02/22-rdf-syntax-ns#"
   xmlns:svg="http://www.w3.org/2000/svg"
   xmlns="http://www.w3.org/2000/svg"
   xmlns:xlink="http://www.w3.org/1999/xlink"
   xmlns:sodipodi="http://sodipodi.sourceforge.net/DTD/sodipodi-0.dtd"
   xmlns:inkscape="http://www.inkscape.org/namespaces/inkscape"
   width="48px"
   height="48px"
   id="svg2993"
   version="1.1"
   inkscape:version="0.48.2 r9819"
   sodipodi:docname="Новый документ 3">
  <defs
     id="defs2995">
    <linearGradient
       id="linearGradient3811">
      <stop
         style="stop-color:#00ff00;stop-opacity:1;"
         offset="0"
         id="stop3813" />
      <stop
         style="stop-color:#004f00;stop-opacity:1;"
         offset="1"
         id="stop3815" />
    </linearGradient>
    <linearGradient
       id="linearGradient3775"
       osb:paint="solid">
      <stop
         style="stop-color:#000000;stop-opacity:0.81960785;"
         offset="0"
         id="stop3777" />
    </linearGradient>
    <linearGradient
       inkscape:collect="always"
       xlink:href="#linearGradient3775"
       id="linearGradient3779"
       x1="14.75"
       y1="20"
       x2="37.25"
       y2="20"
       gradientUnits="userSpaceOnUse" />
  </defs>
  <sodipodi:namedview
     id="base"
     pagecolor="#ffffff"
     bordercolor="#666666"
     borderopacity="1.0"
     inkscape:pageopacity="0.0"
     inkscape:pageshadow="2"
     inkscape:zoom="22.020833"
     inkscape:cx="24"
     inkscape:cy="24"
     inkscape:current-layer="layer1"
     showgrid="true"
     inkscape:grid-bbox="true"
     inkscape:document-units="px"
     inkscape:window-width="1620"
     inkscape:window-height="1236"
     inkscape:window-x="756"
     inkscape:window-y="71"
     inkscape:window-maximized="0">
    <inkscape:grid
       type="xygrid"
       id="grid3001" />
  </sodipodi:namedview>
  <metadata
     id="metadata2998">
    <rdf:RDF>
      <cc:Work
         rdf:about="">
        <dc:format>image/svg+xml</dc:format>
        <dc:type
           rdf:resource="http://purl.org/dc/dcmitype/StillImage" />
        <dc:title></dc:title>
      </cc:Work>
    </rdf:RDF>
  </metadata>
  <g
     id="layer1"
     inkscape:label="Layer 1"
     inkscape:groupmode="layer">
    <g
       id="g4224">
      <path
         inkscape:connector-curvature="0"
         id="path4206"
         d="m 9.513113,21.233491 0,6 12,0 0,12 6,0 0,-12 12,0 0,-6 -12,0 0,-12 -6,0 0,12 z"
         style="fill:none;stroke:#006400;stroke-width:1px;stroke-linecap:butt;stroke-linejoin:miter;stroke-opacity:1" />
      <path
         inkscape:connector-curvature="0"
         id="path4208"
         d="m 24.513113,37.233491 0,-26 0,0 0,0"
         style="fill:none;stroke:#00ff00;stroke-width:1px;stroke-linecap:butt;stroke-linejoin:miter;stroke-opacity:1" />
      <path
         inkscape:connector-curvature="0"
         id="path4210"
         d="m 11.513113,24.233491 26,0 0,0 0,0"
         style="fill:none;stroke:#00ff00;stroke-width:1px;stroke-linecap:butt;stroke-linejoin:miter;stroke-opacity:1" />
      <path
         inkscape:connector-curvature="0"
         id="path4212"
         d="m 22.047304,32.702933 0,-5.994324 -6.01703,0 -6.017029,0 0,-2.474929 0,-2.474929 6.017029,0 6.01703,0 0,-5.994323 0,-5.9943239 2.474929,0 2.474929,0 0,5.9943239 0,5.994323 5.994323,0 5.994324,0 0,2.474929 0,2.474929 -5.994324,0 -5.994323,0 0,5.994324 0,5.994323 -2.474929,0 -2.474929,0 0,-5.994323 z M 25.044465,31 l 0,-6.244087 6.244087,0 6.244087,0 0,-0.522233 0,-0.522233 -6.244087,0 -6.244087,0 0,-6.244087 0,-6.244087 -0.522232,0 -0.522233,0 0,6.244087 0,6.244087 -6.244087,0 -6.244087,0 0,0.522233 0,0.522233 6.244087,0 6.244087,0 L 24,31 l 0,6.244087 0.522233,0 0.522232,0 0,-6.244087 z"
         style="fill:#009600;fill-opacity:1;stroke:#00ff00;stroke-width:0.02270577;stroke-linecap:round;stroke-miterlimit:4;stroke-opacity:1;stroke-dasharray:none" />
    </g>
  </g>
</svg>
